<svg width="25" height="25" viewBox="0 0 25 25" fill="none" xmlns="http://www.w3.org/2000/svg">
<path fill-rule="evenodd" clip-rule="evenodd" d="M12.4997 1.5835C11.073 1.5835 9.91636 2.74009 9.91636 4.16683V5.1471C9.64616 5.24203 9.3828 5.35141 9.1272 5.4743L8.43381 4.78091C7.42496 3.77206 5.78928 3.77206 4.78043 4.78091C3.77157 5.78977 3.77157 7.42545 4.78043 8.4343L5.47382 9.12769C5.35092 9.38328 5.24154 9.64664 5.14662 9.91683H4.16634C2.7396 9.91683 1.58301 11.0734 1.58301 12.5002C1.58301 13.9269 2.73961 15.0835 4.16634 15.0835H5.14662C5.24155 15.3537 5.35092 15.617 5.47382 15.8726L4.78043 16.566C3.77157 17.5749 3.77157 19.2106 4.78043 20.2194C5.78928 21.2283 7.42496 21.2283 8.43381 20.2194L9.1272 19.526C9.3828 19.6489 9.64616 19.7583 9.91636 19.8532V20.8335C9.91636 22.2602 11.073 23.4168 12.4997 23.4168C13.9264 23.4168 15.083 22.2602 15.083 20.8335V19.8532C15.3532 19.7583 15.6166 19.6489 15.8722 19.526L16.5655 20.2194C17.5744 21.2283 19.2101 21.2283 20.2189 20.2194C21.2278 19.2106 21.2278 17.5749 20.2189 16.566L19.5255 15.8726C19.6484 15.617 19.7578 15.3537 19.8527 15.0835H20.833C22.2597 15.0835 23.4163 13.9269 23.4163 12.5002C23.4163 11.0734 22.2597 9.91683 20.833 9.91683H19.8527C19.7578 9.64664 19.6484 9.38328 19.5255 9.12769L20.2189 8.4343C21.2278 7.42545 21.2278 5.78977 20.2189 4.78092C19.2101 3.77206 17.5744 3.77206 16.5655 4.78092L15.8722 5.4743C15.6166 5.35141 15.3532 5.24203 15.083 5.14711V4.16683C15.083 2.74009 13.9264 1.5835 12.4997 1.5835ZM10.9164 4.16683C10.9164 3.29238 11.6252 2.5835 12.4997 2.5835C13.3741 2.5835 14.083 3.29238 14.083 4.16683V5.51046C14.083 5.73167 14.2284 5.92658 14.4404 5.98968C14.8918 6.12402 15.3236 6.30408 15.7304 6.52454C15.925 6.62997 16.1657 6.59496 16.3222 6.43848L17.2726 5.48802C17.891 4.86969 18.8935 4.86969 19.5118 5.48802C20.1301 6.10635 20.1301 7.10887 19.5118 7.72719L18.5614 8.67766C18.4049 8.83414 18.3699 9.07486 18.4753 9.26942C18.6958 9.67628 18.8758 10.1081 19.0102 10.5595C19.0733 10.7715 19.2682 10.9168 19.4894 10.9168H20.833C21.7075 10.9168 22.4163 11.6257 22.4163 12.5002C22.4163 13.3746 21.7075 14.0835 20.833 14.0835H19.4894C19.2682 14.0835 19.0733 14.2289 19.0102 14.4409C18.8758 14.8923 18.6958 15.3241 18.4753 15.7309C18.3699 15.9255 18.4049 16.1662 18.5614 16.3227L19.5118 17.2731C20.1301 17.8915 20.1301 18.894 19.5118 19.5123C18.8935 20.1306 17.891 20.1306 17.2726 19.5123L16.3222 18.5618C16.1657 18.4054 15.925 18.3704 15.7304 18.4758C15.3236 18.6962 14.8918 18.8763 14.4404 19.0106C14.2284 19.0737 14.083 19.2687 14.083 19.4899V20.8335C14.083 21.7079 13.3741 22.4168 12.4997 22.4168C11.6252 22.4168 10.9164 21.7079 10.9164 20.8335V19.4899C10.9164 19.2687 10.771 19.0737 10.559 19.0106C10.1076 18.8763 9.67579 18.6963 9.26894 18.4758C9.07438 18.3704 8.83365 18.4054 8.67717 18.5618L7.7267 19.5123C7.10837 20.1306 6.10586 20.1306 5.48753 19.5123C4.8692 18.894 4.8692 17.8915 5.48753 17.2731L6.438 16.3227C6.59448 16.1662 6.62948 15.9255 6.52405 15.7309C6.30359 15.3241 6.12354 14.8923 5.9892 14.4409C5.9261 14.2289 5.73118 14.0835 5.50997 14.0835H4.16634C3.29189 14.0835 2.58301 13.3746 2.58301 12.5002C2.58301 11.6257 3.29189 10.9168 4.16634 10.9168H5.50997C5.73118 10.9168 5.92609 10.7715 5.98919 10.5595C6.12353 10.1081 6.30359 9.67628 6.52405 9.26943C6.62948 9.07486 6.59448 8.83414 6.438 8.67766L5.48753 7.72719C4.8692 7.10886 4.8692 6.10635 5.48753 5.48802C6.10586 4.86969 7.10838 4.86969 7.72671 5.48802L8.67717 6.43849C8.83365 6.59497 9.07437 6.62997 9.26894 6.52454C9.67579 6.30407 10.1076 6.12402 10.559 5.98968C10.771 5.92658 10.9164 5.73166 10.9164 5.51045V4.16683ZM9.87468 12.5002C9.87468 11.0504 11.0499 9.87517 12.4997 9.87517C13.9494 9.87517 15.1247 11.0504 15.1247 12.5002C15.1247 13.9499 13.9494 15.1252 12.4997 15.1252C11.0499 15.1252 9.87468 13.9499 9.87468 12.5002ZM12.4997 8.87517C10.4976 8.87517 8.87468 10.4981 8.87468 12.5002C8.87468 14.5022 10.4976 16.1252 12.4997 16.1252C14.5017 16.1252 16.1247 14.5022 16.1247 12.5002C16.1247 10.4981 14.5017 8.87517 12.4997 8.87517Z" fill="black"/>
</svg>
